<svg width="24" height="24" viewBox="0 0 24 24" fill="none" xmlns="http://www.w3.org/2000/svg">
<path d="M3 0L9.17185 4.96666L12.002 3.34229L14.9044 5.00811L21 0.102783V18.8356L12.002 24L3.004 18.8356V10.0327L3 10.0351V0ZM4.57723 10.8854V17.9326L12.002 22.1941L19.4268 17.9326V10.9953L11.9947 15.3404L4.57723 10.8854ZM12.002 5.14821L4.8765 9.23793L12.0055 13.5197L19.2294 9.29637L12.002 5.14821ZM19.4268 3.38098C18.4598 4.15914 17.4928 4.93729 16.5258 5.71549L19.4268 7.40721V3.38098ZM4.57322 3.2782V7.30441L7.47422 5.61267L4.57322 3.2782Z" fill="white"/>
</svg>
