<?xml version="1.0" encoding="utf-8"?>
<!-- Generator: Adobe Illustrator 16.0.0, SVG Export Plug-In . SVG Version: 6.00 Build 0)  -->
<!DOCTYPE svg PUBLIC "-//W3C//DTD SVG 1.1//EN" "http://www.w3.org/Graphics/SVG/1.1/DTD/svg11.dtd">
<svg version="1.1" id="Logo" xmlns="http://www.w3.org/2000/svg" xmlns:xlink="http://www.w3.org/1999/xlink" x="0px" y="0px"
	 width="500px" height="222.438px" viewBox="0 0 500 222.438" enable-background="new 0 0 500 222.438" xml:space="preserve">
<g>
	<path fill="#B999D6" d="M466.395,100.751c-3.026,0-10.166,7.252-10.166,11.137c0,9.324,8.771,11.473,9.268,10.975
		c1.077-1.075-1.627-1.845,0.251-5.083c3.385-5.836,9.519-10.384,9.519-11.396C475.266,104.959,470.798,100.751,466.395,100.751z"/>
	<path fill="#F1F1F1" d="M175.505,75.369c1.008-1.158,0.554-2.208,0.947-3.254c0.846-2.249,1.675-2.695,1.675-4.97
		c0-4.015-6.702-7.188-35.289-7.188c-11.082,0-23.53,0.867-36.337,2.529c3.487-4.351,7.268-8.681,11.311-12.857
		c23.504-24.281,63.52-45.843,74.689-45.843c1.603,0,2.185,1.263,2.185,3.059c0,3.908-2.897,8.73-5.73,13.209
		c-1.358,2.147-26.56,23.287-31.469,29.846c-0.531,0.709-0.048,1.378-0.048,1.704c0,0.62-0.535,1.09-0.156,1.647
		c1.34,1.973,3.264,3.419,4.381,3.419c0.564,0,12.682-15.438,27.632-28.118c14.602-12.384,32.051-22.007,32.051-22.679
		c0-1.36-1.942-5.002-3.594-5.002c-2.623,0-22.646,14.796-22.873,14.568c-0.227-0.227,3.108-5.025,3.108-8.499
		c0-4.516-4.71-6.943-9.518-6.943c-13.84,0-54.965,18.708-83.188,43.512c-8.151,7.163-15.463,14.938-21.479,22.714
		C40.601,74.861,0,92.005,0,115.061c0,1.929,0.418,4.963,2.258,6.272c4.214,2.999,11.388,3.358,12.084,2.663
		c0.696-0.696-9.162-3.756-9.162-7.706c0-6.375,31.363-22.511,67.452-32.766c-3.796,7.443-5.939,14.428-5.939,20.333
		c0,14.212,6.266,20.358,12.659,23.731c2.729,1.438,4.858,2.887,7.57,2.887C108.052,130.477,160.509,92.602,175.505,75.369z
		 M89.549,63.196c10.43-12.552,25.007-24.396,25.382-24.021c0.396,0.396-11.153,10.651-22.644,24.758
		c-0.32,0.394-0.637,0.783-0.958,1.174l-3.825,0.644C88.168,64.896,88.845,64.044,89.549,63.196z M94.843,64.516l-1.657,0.272
		c0,0,3-3.639,3.391-3.248C96.86,61.824,94.843,64.516,94.843,64.516z M65.592,73.718c5.997-1.53,14.377-2.865,14.377-2.865
		l-1.038,1.481c0,0-5.861,0.77-12.821,2.388c-6.014,1.398-12.286,3.231-12.286,3.011C53.824,77.474,58.683,75.48,65.592,73.718z
		 M50.181,83.269c-22.29,6.702-33.68,14.172-34.229,13.807c-0.528-0.353,10.029-8.625,33.128-16.008
		c14.718-4.702,28.814-7.105,28.814-7.105l-2.197,3.673C75.697,77.634,63.521,79.258,50.181,83.269z M80.256,76.302l2.98-0.512
		c-7.414,9.162-10.792,15.82-10.943,15.669C72.139,91.305,74.84,84.924,80.256,76.302z M72.212,100.792
		c-0.74,2.728-1.133,5.818-1.311,5.818c-0.183,0-0.123-3.075,0.631-5.867c0.719-2.661,2.125-5.042,2.315-5.042
		C74.042,95.701,72.953,98.064,72.212,100.792z M77.15,88.449c-0.292,0,1.831-4.29,3.928-7.2l1.738-0.483
		C80.268,83.722,77.603,88.449,77.15,88.449z M81.067,114.543c-3.023-3.024,2.564-18.556,14.211-36.521
		c34.598-7.216,66.703-9.604,68.281-8.026c0.931,0.931-17.223,17.489-37.685,29.072C105.78,110.443,83.401,116.876,81.067,114.543z
		 M154.332,90.375c-8.996,7.722-20.099,14.153-20.236,14.035c-0.133-0.116,10.149-7.58,18.876-15.151
		c8.284-7.188,16.019-14.771,16.239-14.535C169.425,74.953,162.373,83.473,154.332,90.375z"/>
	<path fill="#F1F1F1" d="M396.708,23.019c-2.42,2.42,5.293,0.292,5.293,10.878c0,29.332-65.244,80.25-71.969,73.523
		c-2.703-2.702,26.933-38.965,35.255-50.928c1.35-1.94-0.484-2.537-0.484-2.952c0-1.024,2.338-3.219,1.765-4.735
		c-0.825-2.185-4.841-5.876-6.718-5.876c-2.018,0-10.805,8.433-19.615,18.867l0.158-0.35
		c-24.021,24.671-47.349,40.194-48.304,39.239c-2.752-2.752,25.512-35.257,25.512-38.041c0-1.295-5.31-12.206-8.417-12.206
		c-0.804,0-3.291,2.151-6.533,5.55c-2.299-5.438-7.479-11.442-13.799-11.442c-5.841,0-22.653,7.148-36.129,18
		c-7.534,6.065-13.97,13.329-17.999,20.268c-9.173,5.331-17.044,10.769-17.339,10.474c-0.302-0.303,6.855-4.795,6.661-4.99
		c-0.273-0.273-7.387,4.264-14.01,8.535c-5.748,3.707-10.933,7.424-11.315,7.042c-2.112-2.112,7.774-14.149,18.195-25.075
		c9.346-9.798,19.247-18.641,19.247-19.652c0-2.307-0.89-3.922-1.627-7.138c-0.417-1.821-0.939-4.917-1.716-5.694
		c-1.688-1.688-4.071-2.562-7.535-2.562c-3.289,0-6.424,0.24-9.356,0.624c0.467-1.927,0.955-4.419,0.955-6.451
		c0-1.958-1.124-1.875-1.716-2.962c-1.131-2.078-1.657-4.162-2.919-4.162c-5.239,0-30.524,16.917-30.524,23.976
		c0,1.976-0.356,7.235,1.748,7.235c1.554,0,22.663-12.334,41.132-12.334c0.955,0,2.04,0.109,2.04,0.583
		c0,3.545-45.26,38.17-45.26,59.246c0,6.459,4.613,13.112,7.672,13.112c0.824,0,4.645-4.311,12.185-11.096
		c-1.01,0.342-1.713,0.54-1.792,0.46c-0.315-0.314,4.225-5.001,26.4-19.865l-0.015,0.016c2.033-1.409,4.159-2.84,6.379-4.288
		c-1.261,3.048-1.959,5.953-1.959,8.566c0,2.851,1.439,6.396,2.655,10.166c1.752,5.436,3.613,10.812,4.856,10.812
		c4.546,0,3.06-9.713,47.484-39.448c-4.29,6.589-7.419,12.907-7.419,17.044c0,4.388,2.164,7.827,3.933,12.385
		c2.17,5.586,3.254,10.861,5.471,10.861c2.539,0,12.285-12.804,36.447-33.178c-2.278,4.256-3.683,8.036-3.683,10.839
		c0,5.115,2.911,6.322,5.617,11.38c2.154,4.027-0.874,4.809,8.004,11.135c2.012,1.434,4.776,1.701,7.681,1.701
		c15.929,0,67.065-45.39,67.065-74.802C408.362,28.36,398.723,21.003,396.708,23.019z M209.408,45.511
		c-9.336,2.012-15.474,4.969-15.983,4.459c-1.635-1.635,16.106-14.293,17.871-12.529C211.832,37.978,210.51,42.271,209.408,45.511z
		 M204.513,76.535c4.104-4.147,8.979-8.509,9.272-8.207c0.287,0.294-4.167,4.391-8.24,8.384c-4.209,4.126-8.063,8.631-8.236,8.467
		C197.141,85.018,200.449,80.641,204.513,76.535z M189.135,102.046c-0.631-0.631,4.623-10.164,12.497-18.68
		c9.518-10.296,19.559-19.434,19.922-19.069c0.431,0.431-11.963,12.688-21.509,23.375
		C193.844,94.613,189.42,102.331,189.135,102.046z M222.538,93.24c-0.277-0.277,5.734-4.604,10.739-7.741
		c-0.259,0.521-0.501,1.041-0.729,1.557C227.944,89.778,222.768,93.47,222.538,93.24z M253.545,93.774
		c-0.129-0.129,1.381-1.624,3.424-3.181c3.15-2.401,7.383-5.209,7.383-5.391c0-0.484-5.069,2.541-9.884,5.917
		c-4.763,3.34-9.27,7.03-9.583,6.718c-2.881-2.881,28.613-44.742,47.592-44.742c2.93,0,3.819,1.113,3.819,2.46
		c0,3.29-0.937,6.723-2.063,9.664c-0.248,0.571-1.067,1.554-1.692,2.186C291.205,69.007,254.201,94.43,253.545,93.774z
		 M286.552,76.017c-5.124,2.825-14.262,9.356-14.262,8.726c0-0.924,18.276-14.002,18.276-14.002L286.552,76.017z M367.163,95.854
		c-0.303-0.304,6.286-5.589,15.154-15.791c18.519-21.303,21.676-32.389,22.16-31.904c0.462,0.461-5.342,17.255-17.287,30.657
		C378.693,88.349,367.484,96.175,367.163,95.854z"/>
	<path fill="#F1F1F1" d="M500,41.764c0-1.489-5.18-8.839-8.644-8.839c-3.982,0-21.306,19.943-40.955,38.478
		c-1.397,1.12-4.199,3.363-4.199,3.363l0,0c-8.816,9.118-28.322,24.674-28.694,24.301c-0.476-0.476,10.223-8.991,9.794-9.42
		c-0.396-0.396-19.966,15.565-20.349,15.184c-1.354-1.354,6.774-14.45,15.476-26.742c7.736-10.931,15.604-19.23,15.604-21.562
		s-6.313-9.81-10.102-9.81s-36.194,38.559-36.194,52.415c0,9.421,5.892,19.846,11.623,19.846c3.657,0,33.701-32.147,35.547-30.303
		c0.631,0.631-40.792,50.796-40.792,102.467c0,15.303,7.449,24.5,14.925,28.555c6.601,3.581,13.338,2.937,13.338,2.04
		c0-1.393-18.355-0.875-18.355-19.327c0-25.253,21.445-72.476,44.516-104.508C475.457,66.081,500,44.548,500,41.764z
		 M400.479,195.545c-0.618-0.619-4.015-28.295,20.315-73.507c25.467-47.324,63.865-77.646,64.297-77.214
		c0.424,0.424-33.362,30.448-61.044,76.906C401.517,159.543,401.111,196.177,400.479,195.545z"/>
	<path fill="#B999D6" d="M291.568,118.784c-67.081,0-119.754,19.183-119.754,24.185c0,3.011,0.534,8.741,2.234,8.741
		c1.7,0,35.977-20.299,119.562-20.299c53.029,0,63.714,14.535,63.714,15.637c0,6.281-15.778,18.812-15.118,19.473
		c0.391,0.392,8.529-7.268,8.902-6.895c0.352,0.351-3.497,5.105-7.996,9.178c-4.305,3.896-9.269,7.114-8.937,7.446
		c1.36,1.359,28.977-14.503,28.977-28.231C363.15,130.277,342.01,118.784,291.568,118.784z M285.32,129.176
		c-29.241,0-49.629,5.007-49.629,4.144c0-0.878,27.325-5.927,49.987-5.927c33.022,0,48.174,4.089,48.174,4.893
		C333.852,133.101,322.779,129.176,285.32,129.176z M355.283,134.68c-0.258,0.259-16.025-11.137-61.48-11.137
		c-51.768,0-92.754,11.301-92.754,10.636c0-1.15,48.793-14.49,91.492-14.068C340.391,120.111,356.445,133.519,355.283,134.68z"/>
</g>
</svg>
